<svg width="24" height="24" viewBox="0 0 24 24" fill="none" xmlns="http://www.w3.org/2000/svg">
<path d="M11.9975 5.25C11.5655 5.25 11.212 4.9125 11.212 4.5V3.75C11.212 1.67812 12.9697 0 15.1397 0H15.9252C16.3573 0 16.7108 0.3375 16.7108 0.75V1.5C16.7108 3.57188 14.9531 5.25 12.7831 5.25H11.9975ZM1 13.5C1 9.92344 2.75273 6 6.49877 6C7.8391 6 9.42982 6.48281 10.559 6.90469C11.482 7.24688 12.518 7.24688 13.441 6.90469C14.5653 6.4875 16.1609 6 17.5012 6C21.2473 6 23 9.92344 23 13.5C23 19.5 19.0723 24 15.1446 24C14.3345 24 13.274 23.6906 12.6162 23.4703C12.2185 23.3391 11.7864 23.3391 11.3888 23.4703C10.7309 23.6906 9.67039 24 8.8603 24C4.9326 24 1.00491 19.5 1.00491 13.5H1Z" fill="#EB5757"/>
</svg>
