<svg width="24" height="24" viewBox="0 0 24 24" fill="none" xmlns="http://www.w3.org/2000/svg">
<path d="M19.3333 19H21.3333C22.8042 19 24 17.7444 24 16.2V7.8C24 6.25563 22.8042 5 21.3333 5H19.3333V19ZM17.3333 5H6.66667V19H17.3333V5ZM2.66667 5C1.19583 5 0 6.25563 0 7.8V16.2C0 17.7444 1.19583 19 2.66667 19H4.66667V5H2.66667ZM9 9.9C9 9.31812 9.44583 8.85 10 8.85C10.5542 8.85 11 9.31812 11 9.9C11 10.4819 10.5542 10.95 10 10.95C9.44583 10.95 9 10.4819 9 9.9ZM14 8.85C14.5542 8.85 15 9.31812 15 9.9C15 10.4819 14.5542 10.95 14 10.95C13.4458 10.95 13 10.4819 13 9.9C13 9.31812 13.4458 8.85 14 8.85ZM9 14.1C9 13.5181 9.44583 13.05 10 13.05C10.5542 13.05 11 13.5181 11 14.1C11 14.6819 10.5542 15.15 10 15.15C9.44583 15.15 9 14.6819 9 14.1ZM14 13.05C14.5542 13.05 15 13.5181 15 14.1C15 14.6819 14.5542 15.15 14 15.15C13.4458 15.15 13 14.6819 13 14.1C13 13.5181 13.4458 13.05 14 13.05Z" fill="#56CCF2"/>
</svg>
