<svg width="24" height="24" viewBox="0 0 24 24" fill="none" xmlns="http://www.w3.org/2000/svg">
<path d="M0 8.32498C0 6.67029 1.34531 5.32498 3 5.32498C3.02344 5.32498 3.05156 5.32498 3.075 5.32498C3.42188 3.61404 4.93594 2.32498 6.75 2.32498C7.45312 2.32498 8.10938 2.51717 8.66719 2.84998C9.29062 1.64529 10.5469 0.824982 12 0.824982C13.4531 0.824982 14.7094 1.64998 15.3328 2.84998C15.8953 2.51717 16.5516 2.32498 17.25 2.32498C19.0641 2.32498 20.5781 3.61404 20.925 5.32498C20.9484 5.32498 20.9766 5.32498 21 5.32498C22.6547 5.32498 24 6.67029 24 8.32498C24 8.87342 23.8547 9.38436 23.5969 9.82498H0.403125C0.145312 9.38436 0 8.87342 0 8.32498ZM0 13.3594C0 12.6515 0.576563 12.075 1.28438 12.075H22.7109C23.4188 12.075 23.9953 12.6515 23.9953 13.3594C23.9953 16.664 21.9141 19.4859 18.9938 20.5828L18.9141 21.2625C18.8203 22.0125 18.1828 22.575 17.4234 22.575H6.57187C5.81719 22.575 5.175 22.0125 5.08125 21.2625L4.99688 20.5875C2.08125 19.4859 0 16.664 0 13.3594Z" fill="#2F80ED"/>
</svg>
