<svg width="24" height="24" viewBox="0 0 24 24" fill="none" xmlns="http://www.w3.org/2000/svg">
<path d="M16.1599 0.19325L15.6528 0.696116C14.3558 1.99276 14.3558 4.09981 15.6528 5.39646C16.3012 6.04478 16.9497 6.6931 17.6023 7.34558C18.8993 8.64223 21.0068 8.64223 22.3037 7.34558L22.8067 6.84272C23.0644 6.58505 23.0644 6.16115 22.8067 5.90348L22.3037 5.40061C21.0068 4.10397 18.8993 4.10397 17.6023 5.40061C18.8993 4.10397 18.8993 1.99692 17.6023 0.700272L17.0994 0.19325C16.8416 -0.0644167 16.4176 -0.0644167 16.1599 0.19325ZM11.1093 5.70815C9.23044 5.70815 7.48873 6.55596 6.32897 7.96481L8.6859 10.3212C9.07664 10.7119 9.07664 11.3436 8.6859 11.7301C8.29515 12.1166 7.66331 12.1207 7.27673 11.7301L5.28975 9.7477L0.118636 21.1183C-0.10999 21.6212 -0.00191217 22.2154 0.388831 22.6103C0.779575 23.0051 1.374 23.109 1.88114 22.8804L7.76723 20.204L5.94654 18.3837C5.55579 17.993 5.55579 17.3613 5.94654 16.9748C6.33728 16.5883 6.96912 16.5842 7.35571 16.9748L9.70433 19.3229L13.6658 17.5234C15.8731 16.5218 17.2906 14.3192 17.2906 11.8922C17.2906 8.47599 14.5221 5.70815 11.1052 5.70815H11.1093Z" fill="#F8551F"/>
</svg>
