<svg width="24" height="24" viewBox="0 0 24 24" fill="none" xmlns="http://www.w3.org/2000/svg">
<path d="M14.5333 2C14.1958 2.62946 14 3.36161 14 4.14286V4.85714H2.66667V14.8571H14V17.7143H2.66667C1.19583 17.7143 0 16.433 0 14.8571V4.85714C0 3.28125 1.19583 2 2.66667 2H14.5333ZM14 19.8571C14 20.6384 14.1958 21.3705 14.5333 22H5C4.44583 22 4 21.5223 4 20.9286C4 20.3348 4.44583 19.8571 5 19.8571H14ZM18 2H22C23.1042 2 24 2.95982 24 4.14286V19.8571C24 21.0402 23.1042 22 22 22H18C16.8958 22 16 21.0402 16 19.8571V4.14286C16 2.95982 16.8958 2 18 2ZM19 4.85714C18.4458 4.85714 18 5.33482 18 5.92857C18 6.52232 18.4458 7 19 7H21C21.5542 7 22 6.52232 22 5.92857C22 5.33482 21.5542 4.85714 21 4.85714H19ZM19 9.14286C18.4458 9.14286 18 9.62054 18 10.2143C18 10.808 18.4458 11.2857 19 11.2857H21C21.5542 11.2857 22 10.808 22 10.2143C22 9.62054 21.5542 9.14286 21 9.14286H19ZM21.3333 15.5714C21.3333 14.7812 20.7375 14.1429 20 14.1429C19.2625 14.1429 18.6667 14.7812 18.6667 15.5714C18.6667 16.3616 19.2625 17 20 17C20.7375 17 21.3333 16.3616 21.3333 15.5714Z" fill="#BB6BD9"/>
</svg>
