<svg width="24" height="24" viewBox="0 0 24 24" fill="none" xmlns="http://www.w3.org/2000/svg">
<g clip-path="url(#clip0_1192_29984)">
<path d="M12 24C18.6281 24 24 18.6281 24 12C24 5.37188 18.6281 0 12 0C5.37188 0 0 5.37188 0 12C0 18.6281 5.37188 24 12 24ZM4.7625 14.7188C4.58906 14.0766 5.11406 13.5 5.77969 13.5H18.2203C18.8859 13.5 19.4109 14.0766 19.2375 14.7188C18.3703 17.9062 15.4594 20.25 12 20.25C8.54062 20.25 5.625 17.9062 4.7625 14.7188ZM6.75 9C6.75 8.17031 7.42031 7.5 8.25 7.5C9.07969 7.5 9.75 8.17031 9.75 9C9.75 9.82969 9.07969 10.5 8.25 10.5C7.42031 10.5 6.75 9.82969 6.75 9ZM15.75 7.5C16.5797 7.5 17.25 8.17031 17.25 9C17.25 9.82969 16.5797 10.5 15.75 10.5C14.9203 10.5 14.25 9.82969 14.25 9C14.25 8.17031 14.9203 7.5 15.75 7.5Z" fill="#9B51E0"/>
</g>
<defs>
<clipPath id="clip0_1192_29984">
<rect width="24" height="24" fill="white"/>
</clipPath>
</defs>
</svg>
