<svg width="24" height="19" viewBox="0 0 24 19" fill="none" xmlns="http://www.w3.org/2000/svg">
<path d="M3.67094 9.15527e-05C3.67029 9.15527e-05 3.66957 9.15527e-05 3.66892 9.15527e-05C3.44193 9.15527e-05 3.22843 0.0885766 3.06722 0.249385C2.90423 0.411972 2.81445 0.628457 2.81445 0.858923V13.7369C2.81445 14.2092 3.20015 14.5943 3.67433 14.5955C5.67337 14.6003 9.02255 15.017 11.333 17.4348V3.9576C11.333 3.79752 11.2921 3.64713 11.215 3.52269C9.31864 0.46878 5.6745 0.00477844 3.67094 9.15527e-05Z" fill="#27AE60"/>
<path d="M21.1845 13.7369V0.858831C21.1845 0.628366 21.0947 0.41188 20.9317 0.249294C20.7705 0.0884851 20.5569 0 20.3301 0C20.3294 0 20.3287 0 20.328 0C18.3245 0.00476769 14.6804 0.468769 12.784 3.52268C12.7068 3.64712 12.666 3.79751 12.666 3.95759V17.4347C14.9765 15.0169 18.3257 14.6002 20.3247 14.5954C20.7988 14.5942 21.1845 14.2091 21.1845 13.7369Z" fill="#27AE60"/>
<path d="M23.1416 2.96994H22.5189V13.7369C22.5189 14.9427 21.5365 15.9259 20.3289 15.9289C18.6333 15.9329 15.8375 16.2645 13.8574 18.1385C17.2819 17.3 20.892 17.8451 22.9493 18.3139C23.2062 18.3724 23.4717 18.312 23.6775 18.1479C23.8826 17.9843 24.0002 17.7397 24.0002 17.4771V3.82861C24.0003 3.35515 23.615 2.96994 23.1416 2.96994Z" fill="#27AE60"/>
<path d="M1.48138 13.7369V2.96994H0.85867C0.385294 2.96994 0 3.35515 0 3.82861V17.4769C0 17.7395 0.117657 17.9841 0.322749 18.1477C0.528406 18.3116 0.793619 18.3723 1.05091 18.3137C3.10829 17.8447 6.71841 17.2998 10.1427 18.1382C8.16278 16.2643 5.36697 15.9328 3.67137 15.9288C2.46385 15.9259 1.48138 14.9427 1.48138 13.7369Z" fill="#27AE60"/>
</svg>
