<svg width="24" height="24" viewBox="0 0 24 24" fill="none" xmlns="http://www.w3.org/2000/svg">
<path d="M13.801 1.5C13.801 0.670312 13.1158 0 12.2678 0C11.4198 0 10.7346 0.670312 10.7346 1.5V11.25C10.7346 11.6625 10.3897 12 9.96804 12C9.54642 12 9.20146 11.6625 9.20146 11.25V3C9.20146 2.17031 8.51632 1.5 7.66829 1.5C6.82025 1.5 6.13512 2.17031 6.13512 3V15.75C6.13512 15.8203 6.13512 15.8953 6.13991 15.9656L3.24125 13.2656C2.47467 12.5531 1.2625 12.5812 0.529457 13.3312C-0.203591 14.0812 -0.170052 15.2672 0.596533 15.9844L5.9818 21C8.04679 22.9266 10.7921 24 13.6477 24H14.5676C19.2246 24 23 20.3062 23 15.75V6C23 5.17031 22.3149 4.5 21.4668 4.5C20.6188 4.5 19.9337 5.17031 19.9337 6V11.25C19.9337 11.6625 19.5887 12 19.1671 12C18.7454 12 18.4005 11.6625 18.4005 11.25V3C18.4005 2.17031 17.7153 1.5 16.8673 1.5C16.0193 1.5 15.3341 2.17031 15.3341 3V11.25C15.3341 11.6625 14.9892 12 14.5676 12C14.1459 12 13.801 11.6625 13.801 11.25V1.5Z" fill="#F2994A"/>
</svg>
