<svg width="24" height="24" viewBox="0 0 24 24" fill="none" xmlns="http://www.w3.org/2000/svg">
<path d="M7.33372 3C6.77957 3 6.33375 3.43815 6.33375 3.98276C6.33375 4.52737 6.77957 4.96552 7.33372 4.96552H13.6669V6.93103H4.46713L3.10049 5.31767C2.913 5.09655 2.62967 4.96552 2.33384 4.96552H1.00054C0.654715 4.96552 0.333889 5.14159 0.15056 5.43233C-0.0327688 5.72306 -0.049435 6.08341 0.104728 6.39052L2.10468 10.3216C2.27551 10.6532 2.62134 10.8621 3.00049 10.8621H7.49205L11.8253 16.7218C12.4544 17.5694 13.4544 18.069 14.5211 18.069H17.6668C20.7959 18.069 23.3333 15.5752 23.3333 12.5C23.3333 9.42478 20.7959 6.93103 17.6668 6.93103H15.6669V4.96552H22C22.5542 4.96552 23 4.52737 23 3.98276C23 3.43815 22.5542 3 22 3H7.33372ZM15.6669 9.55172H17.6668C19.3251 9.55172 20.6667 10.8703 20.6667 12.5C20.6667 14.1297 19.3251 15.4483 17.6668 15.4483H15.6669V9.55172ZM23 18.7241C22.4459 18.7241 22 19.1623 22 19.7069C22 19.8871 21.8501 20.0345 21.6667 20.0345H10.3337C9.7795 20.0345 9.33368 20.4726 9.33368 21.0172C9.33368 21.5619 9.7795 22 10.3337 22H21.6667C22.9542 22 24 20.9722 24 19.7069C24 19.1623 23.5542 18.7241 23 18.7241Z" fill="#F2C94C"/>
</svg>
