<svg width="161" height="30" viewBox="0 0 161 30" fill="none" xmlns="http://www.w3.org/2000/svg">
<path d="M155.891 23.5122C154.529 23.5122 153.338 23.1911 152.32 22.5489C151.318 21.891 150.628 21.006 150.252 19.8939L152.555 18.7896C152.884 19.5101 153.338 20.074 153.918 20.4813C154.513 20.8885 155.171 21.0922 155.891 21.0922C156.455 21.0922 156.902 20.9669 157.231 20.7162C157.56 20.4656 157.724 20.1367 157.724 19.7294C157.724 19.4788 157.654 19.2752 157.513 19.1185C157.387 18.9462 157.207 18.8053 156.972 18.6956C156.753 18.5703 156.51 18.4685 156.244 18.3902L154.153 17.8028C153.072 17.4895 152.25 17.0118 151.686 16.3696C151.137 15.7273 150.863 14.9677 150.863 14.0905C150.863 13.3073 151.059 12.6259 151.451 12.0464C151.858 11.4512 152.414 10.9891 153.119 10.6601C153.839 10.3312 154.662 10.1667 155.586 10.1667C156.792 10.1667 157.857 10.4565 158.781 11.0361C159.705 11.6156 160.363 12.4301 160.755 13.4796L158.405 14.5839C158.186 14.0043 157.818 13.5423 157.301 13.1977C156.784 12.8531 156.205 12.6808 155.562 12.6808C155.046 12.6808 154.638 12.7982 154.341 13.0332C154.043 13.2681 153.894 13.5736 153.894 13.9495C153.894 14.1845 153.957 14.3881 154.082 14.5604C154.208 14.7327 154.38 14.8737 154.599 14.9833C154.834 15.093 155.1 15.1948 155.398 15.2888L157.442 15.8996C158.492 16.2129 159.298 16.6828 159.862 17.3094C160.442 17.9359 160.731 18.7034 160.731 19.6119C160.731 20.3795 160.528 21.0608 160.121 21.6561C159.713 22.2356 159.149 22.6899 158.429 23.0188C157.708 23.3477 156.863 23.5122 155.891 23.5122Z" fill="black"/>
<path d="M141.186 23.5122C139.949 23.5122 138.844 23.2224 137.873 22.6429C136.902 22.0476 136.135 21.241 135.571 20.2228C135.007 19.2047 134.725 18.0769 134.725 16.8395C134.725 15.5864 135.007 14.4586 135.571 13.4561C136.135 12.4536 136.902 11.6548 137.873 11.0596C138.86 10.4643 139.957 10.1667 141.163 10.1667C142.134 10.1667 142.995 10.3625 143.747 10.7541C144.515 11.13 145.118 11.6626 145.556 12.3518L145.086 12.9862V5.44412H148.164V23.2302H145.251V20.7632L145.58 21.3741C145.141 22.0633 144.53 22.5959 143.747 22.9718C142.964 23.3321 142.11 23.5122 141.186 23.5122ZM141.515 20.6927C142.22 20.6927 142.839 20.5283 143.371 20.1993C143.904 19.8704 144.319 19.4161 144.616 18.8366C144.93 18.257 145.086 17.5913 145.086 16.8395C145.086 16.1033 144.93 15.4454 144.616 14.8658C144.319 14.2706 143.904 13.8085 143.371 13.4796C142.839 13.1507 142.22 12.9862 141.515 12.9862C140.826 12.9862 140.207 13.1585 139.659 13.5031C139.111 13.832 138.68 14.2863 138.367 14.8658C138.069 15.4297 137.92 16.0876 137.92 16.8395C137.92 17.5913 138.069 18.257 138.367 18.8366C138.68 19.4161 139.111 19.8704 139.659 20.1993C140.207 20.5283 140.826 20.6927 141.515 20.6927Z" fill="black"/>
<path d="M126.917 23.5122C125.601 23.5122 124.45 23.2146 123.463 22.6194C122.476 22.0242 121.709 21.2175 121.161 20.1993C120.612 19.1812 120.338 18.0534 120.338 16.816C120.338 15.5315 120.612 14.3959 121.161 13.4091C121.725 12.4066 122.484 11.6156 123.44 11.0361C124.411 10.4565 125.492 10.1667 126.682 10.1667C127.685 10.1667 128.562 10.3312 129.314 10.6601C130.081 10.9891 130.731 11.4433 131.264 12.0229C131.796 12.6024 132.204 13.2681 132.486 14.02C132.768 14.7562 132.908 15.555 132.908 16.4165C132.908 16.6358 132.893 16.863 132.862 17.0979C132.846 17.3329 132.807 17.5365 132.744 17.7088H122.876V15.3592H131.005L129.549 16.4635C129.69 15.743 129.65 15.1008 129.431 14.5369C129.228 13.973 128.883 13.5266 128.397 13.1977C127.927 12.8687 127.356 12.7043 126.682 12.7043C126.04 12.7043 125.468 12.8687 124.967 13.1977C124.466 13.5109 124.082 13.9808 123.816 14.6074C123.565 15.2183 123.471 15.9623 123.534 16.8395C123.471 17.6227 123.573 18.3197 123.839 18.9306C124.121 19.5258 124.528 19.9879 125.061 20.3168C125.609 20.6457 126.236 20.8102 126.941 20.8102C127.645 20.8102 128.241 20.6614 128.726 20.3638C129.228 20.0662 129.619 19.6668 129.901 19.1655L132.392 20.3873C132.141 20.9982 131.749 21.5386 131.217 22.0085C130.684 22.4784 130.05 22.8465 129.314 23.1128C128.593 23.3791 127.794 23.5122 126.917 23.5122Z" fill="black"/>
<path d="M112.531 23.5122C111.215 23.5122 110.064 23.2146 109.077 22.6194C108.09 22.0242 107.323 21.2175 106.774 20.1993C106.226 19.1812 105.952 18.0534 105.952 16.816C105.952 15.5315 106.226 14.3959 106.774 13.4091C107.338 12.4066 108.098 11.6156 109.053 11.0361C110.025 10.4565 111.105 10.1667 112.296 10.1667C113.298 10.1667 114.175 10.3312 114.927 10.6601C115.695 10.9891 116.345 11.4433 116.877 12.0229C117.41 12.6024 117.817 13.2681 118.099 14.02C118.381 14.7562 118.522 15.555 118.522 16.4165C118.522 16.6358 118.506 16.863 118.475 17.0979C118.459 17.3329 118.42 17.5365 118.358 17.7088H108.49V15.3592H116.619L115.162 16.4635C115.303 15.743 115.264 15.1008 115.045 14.5369C114.841 13.973 114.497 13.5266 114.011 13.1977C113.541 12.8687 112.969 12.7043 112.296 12.7043C111.654 12.7043 111.082 12.8687 110.581 13.1977C110.079 13.5109 109.696 13.9808 109.429 14.6074C109.179 15.2183 109.085 15.9623 109.147 16.8395C109.085 17.6227 109.187 18.3197 109.453 18.9306C109.735 19.5258 110.142 19.9879 110.675 20.3168C111.223 20.6457 111.849 20.8102 112.554 20.8102C113.259 20.8102 113.854 20.6614 114.34 20.3638C114.841 20.0662 115.233 19.6668 115.515 19.1655L118.005 20.3873C117.755 20.9982 117.363 21.5386 116.83 22.0085C116.298 22.4784 115.664 22.8465 114.927 23.1128C114.207 23.3791 113.408 23.5122 112.531 23.5122Z" fill="black"/>
<path d="M89.3352 23.2303V5.72607H95.0446C96.8929 5.72607 98.4985 6.102 99.8612 6.85386C101.24 7.59005 102.305 8.61603 103.057 9.93178C103.808 11.2319 104.184 12.7434 104.184 14.4664C104.184 16.1738 103.808 17.6931 103.057 19.0246C102.305 20.3403 101.24 21.3741 99.8612 22.126C98.4985 22.8622 96.8929 23.2303 95.0446 23.2303H89.3352ZM92.5306 20.4108H95.1151C96.3055 20.4108 97.3315 20.168 98.193 19.6824C99.0702 19.1812 99.7516 18.492 100.237 17.6148C100.723 16.722 100.965 15.6725 100.965 14.4664C100.965 13.2446 100.723 12.1952 100.237 11.318C99.7516 10.4408 99.0702 9.75948 98.193 9.2739C97.3315 8.78833 96.3055 8.54554 95.1151 8.54554H92.5306V20.4108Z" fill="black"/>
<path d="M79.235 23.5122C77.9975 23.5122 76.8932 23.2224 75.9221 22.6429C74.9509 22.0476 74.1834 21.241 73.6195 20.2228C73.0556 19.2047 72.7737 18.0769 72.7737 16.8395C72.7737 15.5864 73.0556 14.4586 73.6195 13.4561C74.1834 12.4536 74.9509 11.6548 75.9221 11.0596C76.9089 10.4643 78.0054 10.1667 79.2115 10.1667C80.1826 10.1667 81.0441 10.3625 81.796 10.7541C82.5635 11.13 83.1665 11.6626 83.6051 12.3518L83.1352 12.9862V5.44412H86.2131V23.2302H83.2997V20.7632L83.6286 21.3741C83.19 22.0633 82.5792 22.5959 81.796 22.9718C81.0128 23.3321 80.1591 23.5122 79.235 23.5122ZM79.5639 20.6927C80.2688 20.6927 80.8875 20.5283 81.42 20.1993C81.9526 19.8704 82.3677 19.4161 82.6653 18.8366C82.9786 18.257 83.1352 17.5913 83.1352 16.8395C83.1352 16.1033 82.9786 15.4454 82.6653 14.8658C82.3677 14.2706 81.9526 13.8085 81.42 13.4796C80.8875 13.1507 80.2688 12.9862 79.5639 12.9862C78.8747 12.9862 78.256 13.1585 77.7077 13.5031C77.1595 13.832 76.7288 14.2863 76.4155 14.8658C76.1179 15.4297 75.9691 16.0876 75.9691 16.8395C75.9691 17.5913 76.1179 18.257 76.4155 18.8366C76.7288 19.4161 77.1595 19.8704 77.7077 20.1993C78.256 20.5283 78.8747 20.6927 79.5639 20.6927Z" fill="black"/>
<path d="M64.2132 23.5122C62.9602 23.5122 61.8167 23.2224 60.7829 22.6429C59.7648 22.0633 58.9502 21.2723 58.3394 20.2698C57.7441 19.2673 57.4465 18.1239 57.4465 16.8395C57.4465 15.555 57.7441 14.4116 58.3394 13.4091C58.9502 12.4066 59.7648 11.6156 60.7829 11.0361C61.801 10.4565 62.9445 10.1667 64.2132 10.1667C65.4663 10.1667 66.602 10.4565 67.6201 11.0361C68.6382 11.6156 69.4449 12.4066 70.0401 13.4091C70.651 14.3959 70.9565 15.5394 70.9565 16.8395C70.9565 18.1239 70.651 19.2673 70.0401 20.2698C69.4293 21.2723 68.6147 22.0633 67.5966 22.6429C66.5785 23.2224 65.4507 23.5122 64.2132 23.5122ZM64.2132 20.6927C64.9024 20.6927 65.5055 20.5283 66.0224 20.1993C66.555 19.8704 66.9701 19.4161 67.2677 18.8366C67.5809 18.2414 67.7376 17.5757 67.7376 16.8395C67.7376 16.0876 67.5809 15.4297 67.2677 14.8658C66.9701 14.2863 66.555 13.832 66.0224 13.5031C65.5055 13.1585 64.9024 12.9862 64.2132 12.9862C63.5084 12.9862 62.8897 13.1585 62.3571 13.5031C61.8245 13.832 61.4016 14.2863 61.0883 14.8658C60.7907 15.4297 60.6419 16.0876 60.6419 16.8395C60.6419 17.5757 60.7907 18.2414 61.0883 18.8366C61.4016 19.4161 61.8245 19.8704 62.3571 20.1993C62.8897 20.5283 63.5084 20.6927 64.2132 20.6927Z" fill="black"/>
<path d="M48.8861 23.5122C47.633 23.5122 46.4896 23.2224 45.4558 22.6429C44.4376 22.0633 43.6231 21.2723 43.0122 20.2698C42.417 19.2673 42.1194 18.1239 42.1194 16.8395C42.1194 15.555 42.417 14.4116 43.0122 13.4091C43.6231 12.4066 44.4376 11.6156 45.4558 11.0361C46.4739 10.4565 47.6173 10.1667 48.8861 10.1667C50.1392 10.1667 51.2748 10.4565 52.293 11.0361C53.3111 11.6156 54.1178 12.4066 54.713 13.4091C55.3239 14.3959 55.6293 15.5394 55.6293 16.8395C55.6293 18.1239 55.3239 19.2673 54.713 20.2698C54.1021 21.2723 53.2876 22.0633 52.2695 22.6429C51.2513 23.2224 50.1235 23.5122 48.8861 23.5122ZM48.8861 20.6927C49.5753 20.6927 50.1784 20.5283 50.6953 20.1993C51.2278 19.8704 51.6429 19.4161 51.9405 18.8366C52.2538 18.2414 52.4104 17.5757 52.4104 16.8395C52.4104 16.0876 52.2538 15.4297 51.9405 14.8658C51.6429 14.2863 51.2278 13.832 50.6953 13.5031C50.1784 13.1585 49.5753 12.9862 48.8861 12.9862C48.1812 12.9862 47.5625 13.1585 47.03 13.5031C46.4974 13.832 46.0745 14.2863 45.7612 14.8658C45.4636 15.4297 45.3148 16.0876 45.3148 16.8395C45.3148 17.5757 45.4636 18.2414 45.7612 18.8366C46.0745 19.4161 46.4974 19.8704 47.03 20.1993C47.5625 20.5283 48.1812 20.6927 48.8861 20.6927Z" fill="black"/>
<path d="M33.512 28.3993C32.5565 28.3993 31.6715 28.2426 30.857 27.9294C30.0425 27.6161 29.3376 27.1775 28.7424 26.6136C28.1628 26.0654 27.7399 25.4153 27.4736 24.6635L30.3401 23.5827C30.528 24.1779 30.8961 24.6557 31.4444 25.0159C32.0082 25.3918 32.6974 25.5798 33.512 25.5798C34.1385 25.5798 34.6867 25.4623 35.1566 25.2274C35.6422 24.9924 36.0182 24.6478 36.2844 24.1936C36.5507 23.755 36.6839 23.2224 36.6839 22.5959V19.6824L37.2712 20.3873C36.8327 21.1548 36.2453 21.7344 35.5091 22.126C34.7729 22.5176 33.9349 22.7134 32.9951 22.7134C31.8046 22.7134 30.7395 22.4392 29.7997 21.891C28.8598 21.3428 28.1237 20.5909 27.5911 19.6354C27.0585 18.68 26.7922 17.607 26.7922 16.4165C26.7922 15.2104 27.0585 14.1375 27.5911 13.1977C28.1237 12.2578 28.852 11.5216 29.7762 10.9891C30.7003 10.4408 31.7498 10.1667 32.9246 10.1667C33.8801 10.1667 34.7181 10.3704 35.4386 10.7776C36.1748 11.1692 36.7857 11.7409 37.2712 12.4928L36.8483 13.2681V10.4487H39.7618V22.5959C39.7618 23.708 39.4877 24.7026 38.9394 25.5798C38.4069 26.457 37.6707 27.1462 36.7309 27.6474C35.8067 28.1487 34.7337 28.3993 33.512 28.3993ZM33.371 19.8704C34.0289 19.8704 34.6006 19.7294 35.0862 19.4475C35.5874 19.1499 35.979 18.7426 36.2609 18.2257C36.5429 17.7088 36.6839 17.1136 36.6839 16.44C36.6839 15.7822 36.5351 15.1948 36.2374 14.6779C35.9555 14.1453 35.5639 13.7302 35.0627 13.4326C34.5771 13.135 34.0132 12.9862 33.371 12.9862C32.7288 12.9862 32.1492 13.135 31.6323 13.4326C31.1154 13.7302 30.7082 14.1453 30.4105 14.6779C30.1286 15.1948 29.9876 15.7822 29.9876 16.44C29.9876 17.0979 30.1286 17.6853 30.4105 18.2022C30.7082 18.7191 31.1076 19.1264 31.6088 19.424C32.1257 19.7216 32.7131 19.8704 33.371 19.8704Z" fill="black"/>
<path d="M10.045 13.3202C11.8227 13.3202 13.2639 11.8735 13.2639 10.0889C13.2639 8.30429 11.8227 6.85757 10.045 6.85757C8.2672 6.85757 6.82605 8.30429 6.82605 10.0889C6.82605 11.8735 8.2672 13.3202 10.045 13.3202Z" fill="#F26639"/>
<path d="M20.0952 19.9162V10.4428H16.5187V19.9162C16.5187 23.4963 13.6165 26.4096 10.0502 26.4096C7.59259 26.4096 5.44666 25.0248 4.35325 22.9885H0.480347C1.77813 27.0508 5.57439 30 10.0451 30C15.5019 30 19.9522 25.6044 20.0799 20.1573H20.0901V19.9162H20.0952Z" fill="#705AFF"/>
<path d="M16.5186 10.0889C16.5186 13.669 13.6165 16.5874 10.0501 16.5874C6.48379 16.5874 3.58167 13.6741 3.58167 10.0889C3.58167 6.50367 6.48379 3.59035 10.0501 3.59035V0C4.50647 0 0 4.52385 0 10.0889C0 15.6539 4.50647 20.1778 10.045 20.1778C15.5836 20.1778 20.09 15.6539 20.09 10.0889H16.5135H16.5186Z" fill="#F26639"/>
</svg>
