<svg width="24" height="24" viewBox="0 0 24 24" fill="none" xmlns="http://www.w3.org/2000/svg">
<path d="M24 2.46944C24 1.96074 23.7328 1.48871 23.2875 1.2229C22.8422 0.957092 22.2938 0.929595 21.8297 1.15874L16.3828 3.82139L7.97344 1.07625C7.59375 0.952509 7.18594 0.980006 6.82969 1.15416L0.829687 4.08719C0.31875 4.33925 0 4.84795 0 5.40248V21.5342C0 22.0429 0.267187 22.5149 0.7125 22.7807C1.15781 23.0465 1.70625 23.074 2.17031 22.8449L7.6125 20.1822L16.0219 22.9228C16.4016 23.0465 16.8094 23.019 17.1656 22.8449L23.1656 19.9118C23.6719 19.6644 23.9953 19.1557 23.9953 18.6011V2.46944H24ZM9 17.5425V4.50423L15 6.46112V19.4994L9 17.5425Z" fill="#705AFF"/>
</svg>
