<svg width="24" height="24" viewBox="0 0 24 24" fill="none" xmlns="http://www.w3.org/2000/svg">
<g clip-path="url(#clip0_1192_29731)">
<path d="M9 2H15C15.2652 2 15.5196 2.10536 15.7071 2.29289C15.8946 2.48043 16 2.73478 16 3V6H8V3C8 2.73478 8.10536 2.48043 8.29289 2.29289C8.48043 2.10536 8.73478 2 9 2ZM6 3V6H4C2.93913 6 1.92172 6.42143 1.17157 7.17157C0.421427 7.92172 0 8.93913 0 10V20C0 21.0609 0.421427 22.0783 1.17157 22.8284C1.92172 23.5786 2.93913 24 4 24H20C21.0609 24 22.0783 23.5786 22.8284 22.8284C23.5786 22.0783 24 21.0609 24 20V10C24 8.93913 23.5786 7.92172 22.8284 7.17157C22.0783 6.42143 21.0609 6 20 6H18V3C18 2.20435 17.6839 1.44129 17.1213 0.87868C16.5587 0.316071 15.7956 0 15 0H9C8.20435 0 7.44129 0.316071 6.87868 0.87868C6.31607 1.44129 6 2.20435 6 3ZM13 12V14H15C15.2652 14 15.5196 14.1054 15.7071 14.2929C15.8946 14.4804 16 14.7348 16 15C16 15.2652 15.8946 15.5196 15.7071 15.7071C15.5196 15.8946 15.2652 16 15 16H13V18C13 18.2652 12.8946 18.5196 12.7071 18.7071C12.5196 18.8946 12.2652 19 12 19C11.7348 19 11.4804 18.8946 11.2929 18.7071C11.1054 18.5196 11 18.2652 11 18V16H9C8.73478 16 8.48043 15.8946 8.29289 15.7071C8.10536 15.5196 8 15.2652 8 15C8 14.7348 8.10536 14.4804 8.29289 14.2929C8.48043 14.1054 8.73478 14 9 14H11V12C11 11.7348 11.1054 11.4804 11.2929 11.2929C11.4804 11.1054 11.7348 11 12 11C12.2652 11 12.5196 11.1054 12.7071 11.2929C12.8946 11.4804 13 11.7348 13 12Z" fill="#EB5757"/>
</g>
<defs>
<clipPath id="clip0_1192_29731">
<rect width="24" height="24" fill="white"/>
</clipPath>
</defs>
</svg>
