<svg width="24" height="24" viewBox="0 0 24 24" fill="none" xmlns="http://www.w3.org/2000/svg">
<path d="M8.25 2.68333V4.6H15.75V2.68333C15.75 2.4725 15.5813 2.3 15.375 2.3H8.625C8.41875 2.3 8.25 2.4725 8.25 2.68333ZM6 4.6V2.68333C6 1.20271 7.17656 0 8.625 0H15.375C16.8234 0 18 1.20271 18 2.68333V4.6H19.3172C19.9125 4.6 20.4844 4.84438 20.9062 5.27563L23.3391 7.7625C23.7609 8.19375 24 8.77833 24 9.38687V13.0333H17.625V12.2667C17.625 11.6294 17.1234 11.1167 16.5 11.1167C15.8766 11.1167 15.375 11.6294 15.375 12.2667V13.0333H8.625V12.2667C8.625 11.6294 8.12344 11.1167 7.5 11.1167C6.87656 11.1167 6.375 11.6294 6.375 12.2667V13.0333H0V9.38687C0 8.77833 0.239062 8.19375 0.660937 7.7625L3.09375 5.27563C3.51562 4.84438 4.0875 4.6 4.68281 4.6H6ZM0 19.9333V15.3333H6.375V16.1C6.375 16.7373 6.87656 17.25 7.5 17.25C8.12344 17.25 8.625 16.7373 8.625 16.1V15.3333H15.375V16.1C15.375 16.7373 15.8766 17.25 16.5 17.25C17.1234 17.25 17.625 16.7373 17.625 16.1V15.3333H24V19.9333C24 21.6248 22.6547 23 21 23H3C1.34531 23 0 21.6248 0 19.9333Z" fill="#2D9CDB"/>
</svg>
